<mxfile host="app.diagrams.net" agent="Mozilla/5.0 (Windows NT 10.0; Win64; x64) AppleWebKit/537.36 (KHTML, like Gecko) Chrome/129.0.0.0 Safari/537.36" version="24.7.16">
  <diagram name="Page-1" id="IjZeniNIs48IiivrqEGG">
    <mxGraphModel dx="1050" dy="522" grid="1" gridSize="10" guides="1" tooltips="1" connect="1" arrows="1" fold="1" page="1" pageScale="1" pageWidth="850" pageHeight="1100" math="0" shadow="0">
      <root>
        <mxCell id="0" />
        <mxCell id="1" parent="0" />
        <mxCell id="Bi7NXjnLWPeEBr0Ph-9d-1" value="" style="endArrow=none;dashed=1;html=1;rounded=0;jumpSize=8;strokeWidth=2;" edge="1" parent="1">
          <mxGeometry width="50" height="50" relative="1" as="geometry">
            <mxPoint x="430" y="880" as="sourcePoint" />
            <mxPoint x="428" y="40" as="targetPoint" />
            <Array as="points">
              <mxPoint x="428" y="290" />
            </Array>
          </mxGeometry>
        </mxCell>
        <mxCell id="Bi7NXjnLWPeEBr0Ph-9d-2" value="" style="ellipse;whiteSpace=wrap;html=1;aspect=fixed;" vertex="1" parent="1">
          <mxGeometry x="548" y="330" width="80" height="80" as="geometry" />
        </mxCell>
        <mxCell id="Bi7NXjnLWPeEBr0Ph-9d-3" value="Game Processes" style="ellipse;whiteSpace=wrap;html=1;aspect=fixed;" vertex="1" parent="1">
          <mxGeometry x="553" y="335" width="70" height="70" as="geometry" />
        </mxCell>
        <mxCell id="Bi7NXjnLWPeEBr0Ph-9d-4" value="" style="shape=link;html=1;rounded=0;width=33;" edge="1" parent="1">
          <mxGeometry width="100" relative="1" as="geometry">
            <mxPoint x="553" y="680" as="sourcePoint" />
            <mxPoint x="633" y="680" as="targetPoint" />
            <Array as="points" />
          </mxGeometry>
        </mxCell>
        <mxCell id="Bi7NXjnLWPeEBr0Ph-9d-6" value="" style="endArrow=classic;html=1;rounded=0;" edge="1" parent="1" target="Bi7NXjnLWPeEBr0Ph-9d-2">
          <mxGeometry relative="1" as="geometry">
            <mxPoint x="558" y="180" as="sourcePoint" />
            <mxPoint x="518" y="322.4" as="targetPoint" />
            <Array as="points">
              <mxPoint x="495.20000000000005" y="270" />
            </Array>
          </mxGeometry>
        </mxCell>
        <mxCell id="Bi7NXjnLWPeEBr0Ph-9d-7" value="Sends Game Data" style="edgeLabel;resizable=0;html=1;;align=center;verticalAlign=middle;" connectable="0" vertex="1" parent="Bi7NXjnLWPeEBr0Ph-9d-6">
          <mxGeometry relative="1" as="geometry" />
        </mxCell>
        <mxCell id="Bi7NXjnLWPeEBr0Ph-9d-8" value="" style="endArrow=classic;html=1;rounded=0;exitX=1;exitY=0;exitDx=0;exitDy=0;" edge="1" parent="1">
          <mxGeometry relative="1" as="geometry">
            <mxPoint x="622.9987373415292" y="345.25126265847075" as="sourcePoint" />
            <mxPoint x="648.25" y="180" as="targetPoint" />
            <Array as="points">
              <mxPoint x="698.15" y="270" />
            </Array>
          </mxGeometry>
        </mxCell>
        <mxCell id="Bi7NXjnLWPeEBr0Ph-9d-9" value="Sends Game Data" style="edgeLabel;resizable=0;html=1;;align=center;verticalAlign=middle;" connectable="0" vertex="1" parent="Bi7NXjnLWPeEBr0Ph-9d-8">
          <mxGeometry relative="1" as="geometry">
            <mxPoint as="offset" />
          </mxGeometry>
        </mxCell>
        <mxCell id="Bi7NXjnLWPeEBr0Ph-9d-11" value="&lt;font style=&quot;font-size: 18px;&quot;&gt;Internet/Web&lt;/font&gt;" style="text;strokeColor=none;fillColor=none;align=left;verticalAlign=middle;spacingLeft=4;spacingRight=4;overflow=hidden;points=[[0,0.5],[1,0.5]];portConstraint=eastwest;rotatable=0;whiteSpace=wrap;html=1;" vertex="1" parent="1">
          <mxGeometry x="88" y="20" width="120" height="40" as="geometry" />
        </mxCell>
        <mxCell id="Bi7NXjnLWPeEBr0Ph-9d-12" value="&lt;font style=&quot;font-size: 18px;&quot;&gt;Intranet/Game Services&lt;/font&gt;" style="text;strokeColor=none;fillColor=none;align=left;verticalAlign=middle;spacingLeft=4;spacingRight=4;overflow=hidden;points=[[0,0.5],[1,0.5]];portConstraint=eastwest;rotatable=0;whiteSpace=wrap;html=1;" vertex="1" parent="1">
          <mxGeometry x="518" y="25" width="200" height="30" as="geometry" />
        </mxCell>
        <mxCell id="Bi7NXjnLWPeEBr0Ph-9d-14" value="Customer Users" style="rounded=0;whiteSpace=wrap;html=1;" vertex="1" parent="1">
          <mxGeometry x="148" y="330" width="120" height="60" as="geometry" />
        </mxCell>
        <mxCell id="Bi7NXjnLWPeEBr0Ph-9d-15" value="Admins/Developers" style="rounded=0;whiteSpace=wrap;html=1;" vertex="1" parent="1">
          <mxGeometry x="538" y="780" width="120" height="60" as="geometry" />
        </mxCell>
        <mxCell id="Bi7NXjnLWPeEBr0Ph-9d-21" value="" style="endArrow=classic;html=1;rounded=0;exitX=0.5;exitY=0;exitDx=0;exitDy=0;entryX=-0.005;entryY=0.3;entryDx=0;entryDy=0;entryPerimeter=0;" edge="1" parent="1" source="Bi7NXjnLWPeEBr0Ph-9d-14" target="Bi7NXjnLWPeEBr0Ph-9d-2">
          <mxGeometry relative="1" as="geometry">
            <mxPoint x="208" y="310" as="sourcePoint" />
            <mxPoint x="408" y="290" as="targetPoint" />
            <Array as="points">
              <mxPoint x="288" y="300" />
            </Array>
          </mxGeometry>
        </mxCell>
        <mxCell id="Bi7NXjnLWPeEBr0Ph-9d-22" value="Outgoing Game Transactions (Start new game, send game moves, etc.)" style="edgeLabel;resizable=0;html=1;;align=center;verticalAlign=middle;" connectable="0" vertex="1" parent="Bi7NXjnLWPeEBr0Ph-9d-21">
          <mxGeometry relative="1" as="geometry" />
        </mxCell>
        <mxCell id="Bi7NXjnLWPeEBr0Ph-9d-23" value="" style="endArrow=classic;html=1;rounded=0;entryX=0.5;entryY=1;entryDx=0;entryDy=0;" edge="1" parent="1" source="Bi7NXjnLWPeEBr0Ph-9d-2" target="Bi7NXjnLWPeEBr0Ph-9d-14">
          <mxGeometry relative="1" as="geometry">
            <mxPoint x="388" y="450" as="sourcePoint" />
            <mxPoint x="288" y="450" as="targetPoint" />
            <Array as="points">
              <mxPoint x="258" y="440" />
            </Array>
          </mxGeometry>
        </mxCell>
        <mxCell id="Bi7NXjnLWPeEBr0Ph-9d-24" value="Incoming Game Transactions (Opponent moves, board/game updates, etc.)" style="edgeLabel;resizable=0;html=1;;align=center;verticalAlign=middle;" connectable="0" vertex="1" parent="Bi7NXjnLWPeEBr0Ph-9d-23">
          <mxGeometry relative="1" as="geometry" />
        </mxCell>
        <mxCell id="Bi7NXjnLWPeEBr0Ph-9d-27" value="Login Processer" style="ellipse;whiteSpace=wrap;html=1;aspect=fixed;" vertex="1" parent="1">
          <mxGeometry x="548" y="460" width="80" height="80" as="geometry" />
        </mxCell>
        <mxCell id="Bi7NXjnLWPeEBr0Ph-9d-30" value="" style="endArrow=classic;html=1;rounded=0;entryX=0;entryY=0.375;entryDx=0;entryDy=0;entryPerimeter=0;exitX=0;exitY=0.75;exitDx=0;exitDy=0;" edge="1" parent="1" source="Bi7NXjnLWPeEBr0Ph-9d-14" target="Bi7NXjnLWPeEBr0Ph-9d-27">
          <mxGeometry relative="1" as="geometry">
            <mxPoint x="108" y="390" as="sourcePoint" />
            <mxPoint x="208" y="450" as="targetPoint" />
            <Array as="points">
              <mxPoint x="88" y="420" />
              <mxPoint x="118" y="450" />
            </Array>
          </mxGeometry>
        </mxCell>
        <mxCell id="Bi7NXjnLWPeEBr0Ph-9d-31" value="Login Request (with credentials)" style="edgeLabel;resizable=0;html=1;;align=center;verticalAlign=middle;" connectable="0" vertex="1" parent="Bi7NXjnLWPeEBr0Ph-9d-30">
          <mxGeometry relative="1" as="geometry" />
        </mxCell>
        <mxCell id="Bi7NXjnLWPeEBr0Ph-9d-32" value="" style="endArrow=classic;html=1;rounded=0;entryX=0;entryY=0.5;entryDx=0;entryDy=0;exitX=0;exitY=0.625;exitDx=0;exitDy=0;exitPerimeter=0;" edge="1" parent="1" source="Bi7NXjnLWPeEBr0Ph-9d-27" target="Bi7NXjnLWPeEBr0Ph-9d-14">
          <mxGeometry relative="1" as="geometry">
            <mxPoint x="233" y="520" as="sourcePoint" />
            <mxPoint x="48" y="400" as="targetPoint" />
            <Array as="points">
              <mxPoint x="98" y="500" />
              <mxPoint x="48" y="450" />
            </Array>
          </mxGeometry>
        </mxCell>
        <mxCell id="Bi7NXjnLWPeEBr0Ph-9d-33" value="Login Authorization/Denial" style="edgeLabel;resizable=0;html=1;;align=center;verticalAlign=middle;" connectable="0" vertex="1" parent="Bi7NXjnLWPeEBr0Ph-9d-32">
          <mxGeometry relative="1" as="geometry" />
        </mxCell>
        <mxCell id="Bi7NXjnLWPeEBr0Ph-9d-36" value="" style="shape=link;html=1;rounded=0;width=33;" edge="1" parent="1">
          <mxGeometry width="100" relative="1" as="geometry">
            <mxPoint x="563" y="170" as="sourcePoint" />
            <mxPoint x="643" y="170" as="targetPoint" />
            <Array as="points" />
          </mxGeometry>
        </mxCell>
        <mxCell id="Bi7NXjnLWPeEBr0Ph-9d-44" value="Game Database" style="text;strokeColor=none;fillColor=none;align=left;verticalAlign=middle;spacingLeft=4;spacingRight=4;overflow=hidden;points=[[0,0.5],[1,0.5]];portConstraint=eastwest;rotatable=0;whiteSpace=wrap;html=1;" vertex="1" parent="1">
          <mxGeometry x="553" y="160" width="110" height="30" as="geometry" />
        </mxCell>
        <mxCell id="Bi7NXjnLWPeEBr0Ph-9d-47" value="User Database" style="text;strokeColor=none;fillColor=none;align=left;verticalAlign=middle;spacingLeft=4;spacingRight=4;overflow=hidden;points=[[0,0.5],[1,0.5]];portConstraint=eastwest;rotatable=0;whiteSpace=wrap;html=1;" vertex="1" parent="1">
          <mxGeometry x="538" y="660" width="100" height="30" as="geometry" />
        </mxCell>
        <mxCell id="Bi7NXjnLWPeEBr0Ph-9d-48" value="R" style="endArrow=classic;html=1;rounded=0;entryX=0.3;entryY=0;entryDx=0;entryDy=0;entryPerimeter=0;" edge="1" parent="1">
          <mxGeometry relative="1" as="geometry">
            <mxPoint x="581.0386106164317" y="539.6911150685464" as="sourcePoint" />
            <mxPoint x="566" y="660" as="targetPoint" />
            <Array as="points">
              <mxPoint x="528" y="600" />
            </Array>
          </mxGeometry>
        </mxCell>
        <mxCell id="Bi7NXjnLWPeEBr0Ph-9d-49" value="Requests User Data" style="edgeLabel;resizable=0;html=1;;align=center;verticalAlign=middle;" connectable="0" vertex="1" parent="Bi7NXjnLWPeEBr0Ph-9d-48">
          <mxGeometry relative="1" as="geometry" />
        </mxCell>
        <mxCell id="Bi7NXjnLWPeEBr0Ph-9d-53" value="" style="endArrow=classic;html=1;rounded=0;entryX=0.75;entryY=1;entryDx=0;entryDy=0;entryPerimeter=0;" edge="1" parent="1" target="Bi7NXjnLWPeEBr0Ph-9d-27">
          <mxGeometry relative="1" as="geometry">
            <mxPoint x="618" y="660" as="sourcePoint" />
            <mxPoint x="718" y="660" as="targetPoint" />
            <Array as="points">
              <mxPoint x="668" y="600" />
            </Array>
          </mxGeometry>
        </mxCell>
        <mxCell id="Bi7NXjnLWPeEBr0Ph-9d-54" value="Sends User Data" style="edgeLabel;resizable=0;html=1;;align=center;verticalAlign=middle;" connectable="0" vertex="1" parent="Bi7NXjnLWPeEBr0Ph-9d-53">
          <mxGeometry relative="1" as="geometry" />
        </mxCell>
        <mxCell id="Bi7NXjnLWPeEBr0Ph-9d-55" value="" style="endArrow=classic;html=1;rounded=0;entryX=0.25;entryY=0;entryDx=0;entryDy=0;exitX=0.5;exitY=0;exitDx=0;exitDy=0;" edge="1" parent="1" source="Bi7NXjnLWPeEBr0Ph-9d-2" target="Bi7NXjnLWPeEBr0Ph-9d-14">
          <mxGeometry relative="1" as="geometry">
            <mxPoint x="550" y="230" as="sourcePoint" />
            <mxPoint x="350" y="230" as="targetPoint" />
            <Array as="points">
              <mxPoint x="500" y="230" />
              <mxPoint x="208" y="230" />
            </Array>
          </mxGeometry>
        </mxCell>
        <mxCell id="Bi7NXjnLWPeEBr0Ph-9d-56" value="Sends User Client Updates" style="edgeLabel;resizable=0;html=1;;align=center;verticalAlign=middle;" connectable="0" vertex="1" parent="Bi7NXjnLWPeEBr0Ph-9d-55">
          <mxGeometry relative="1" as="geometry" />
        </mxCell>
        <mxCell id="Bi7NXjnLWPeEBr0Ph-9d-57" value="" style="endArrow=classic;html=1;rounded=0;entryX=-0.002;entryY=0.108;entryDx=0;entryDy=0;entryPerimeter=0;exitX=0;exitY=0.25;exitDx=0;exitDy=0;" edge="1" parent="1" source="Bi7NXjnLWPeEBr0Ph-9d-14" target="Bi7NXjnLWPeEBr0Ph-9d-47">
          <mxGeometry relative="1" as="geometry">
            <mxPoint x="20" y="440" as="sourcePoint" />
            <mxPoint x="268" y="530" as="targetPoint" />
            <Array as="points">
              <mxPoint x="30" y="450" />
              <mxPoint x="80" y="520" />
            </Array>
          </mxGeometry>
        </mxCell>
        <mxCell id="Bi7NXjnLWPeEBr0Ph-9d-58" value="Requests User Information (Like leaderboard/rank)" style="edgeLabel;resizable=0;html=1;;align=center;verticalAlign=middle;" connectable="0" vertex="1" parent="Bi7NXjnLWPeEBr0Ph-9d-57">
          <mxGeometry relative="1" as="geometry" />
        </mxCell>
        <mxCell id="Bi7NXjnLWPeEBr0Ph-9d-60" value="" style="endArrow=classic;html=1;rounded=0;exitX=0.042;exitY=0.908;exitDx=0;exitDy=0;exitPerimeter=0;" edge="1" parent="1" source="Bi7NXjnLWPeEBr0Ph-9d-47">
          <mxGeometry relative="1" as="geometry">
            <mxPoint x="280" y="640" as="sourcePoint" />
            <mxPoint x="140" y="340" as="targetPoint" />
            <Array as="points">
              <mxPoint x="250" y="630" />
              <mxPoint x="70" y="570" />
              <mxPoint x="20" y="450" />
            </Array>
          </mxGeometry>
        </mxCell>
        <mxCell id="Bi7NXjnLWPeEBr0Ph-9d-61" value="Sends User Information" style="edgeLabel;resizable=0;html=1;;align=center;verticalAlign=middle;" connectable="0" vertex="1" parent="Bi7NXjnLWPeEBr0Ph-9d-60">
          <mxGeometry relative="1" as="geometry" />
        </mxCell>
        <mxCell id="Bi7NXjnLWPeEBr0Ph-9d-62" value="" style="endArrow=classic;html=1;rounded=0;" edge="1" parent="1">
          <mxGeometry relative="1" as="geometry">
            <mxPoint x="628" y="780" as="sourcePoint" />
            <mxPoint x="620" y="700" as="targetPoint" />
            <Array as="points">
              <mxPoint x="670" y="740" />
            </Array>
          </mxGeometry>
        </mxCell>
        <mxCell id="Bi7NXjnLWPeEBr0Ph-9d-63" value="Requests User Data (More data authorized)" style="edgeLabel;resizable=0;html=1;;align=center;verticalAlign=middle;" connectable="0" vertex="1" parent="Bi7NXjnLWPeEBr0Ph-9d-62">
          <mxGeometry relative="1" as="geometry">
            <mxPoint x="2" as="offset" />
          </mxGeometry>
        </mxCell>
        <mxCell id="Bi7NXjnLWPeEBr0Ph-9d-64" value="" style="endArrow=classic;html=1;rounded=0;entryX=0.06;entryY=-0.059;entryDx=0;entryDy=0;entryPerimeter=0;" edge="1" parent="1" target="Bi7NXjnLWPeEBr0Ph-9d-15">
          <mxGeometry relative="1" as="geometry">
            <mxPoint x="550" y="700" as="sourcePoint" />
            <mxPoint x="538" y="800" as="targetPoint" />
            <Array as="points">
              <mxPoint x="480" y="740" />
            </Array>
          </mxGeometry>
        </mxCell>
        <mxCell id="Bi7NXjnLWPeEBr0Ph-9d-65" value="Sends User Data" style="edgeLabel;resizable=0;html=1;;align=center;verticalAlign=middle;" connectable="0" vertex="1" parent="Bi7NXjnLWPeEBr0Ph-9d-64">
          <mxGeometry relative="1" as="geometry" />
        </mxCell>
        <mxCell id="Bi7NXjnLWPeEBr0Ph-9d-66" value="" style="endArrow=classic;html=1;rounded=0;" edge="1" parent="1">
          <mxGeometry relative="1" as="geometry">
            <mxPoint x="628" y="359.47" as="sourcePoint" />
            <mxPoint x="660" y="800" as="targetPoint" />
            <Array as="points">
              <mxPoint x="790" y="640" />
              <mxPoint x="790" y="790" />
            </Array>
          </mxGeometry>
        </mxCell>
        <mxCell id="Bi7NXjnLWPeEBr0Ph-9d-67" value="Server Update Status Sent" style="edgeLabel;resizable=0;html=1;;align=center;verticalAlign=middle;" connectable="0" vertex="1" parent="Bi7NXjnLWPeEBr0Ph-9d-66">
          <mxGeometry relative="1" as="geometry" />
        </mxCell>
        <mxCell id="Bi7NXjnLWPeEBr0Ph-9d-68" value="" style="endArrow=classic;html=1;rounded=0;" edge="1" parent="1">
          <mxGeometry relative="1" as="geometry">
            <mxPoint x="663" y="820" as="sourcePoint" />
            <mxPoint x="630" y="350" as="targetPoint" />
            <Array as="points">
              <mxPoint x="810" y="820" />
              <mxPoint x="800" y="590" />
            </Array>
          </mxGeometry>
        </mxCell>
        <mxCell id="Bi7NXjnLWPeEBr0Ph-9d-69" value="Server Update Send" style="edgeLabel;resizable=0;html=1;;align=center;verticalAlign=middle;" connectable="0" vertex="1" parent="Bi7NXjnLWPeEBr0Ph-9d-68">
          <mxGeometry relative="1" as="geometry">
            <mxPoint x="-72" y="189" as="offset" />
          </mxGeometry>
        </mxCell>
        <mxCell id="Bi7NXjnLWPeEBr0Ph-9d-73" value="" style="endArrow=classic;html=1;rounded=0;exitX=1.005;exitY=0.448;exitDx=0;exitDy=0;exitPerimeter=0;" edge="1" parent="1" source="Bi7NXjnLWPeEBr0Ph-9d-27">
          <mxGeometry width="50" height="50" relative="1" as="geometry">
            <mxPoint x="640" y="500" as="sourcePoint" />
            <mxPoint x="710" y="496" as="targetPoint" />
          </mxGeometry>
        </mxCell>
        <mxCell id="Bi7NXjnLWPeEBr0Ph-9d-74" value="" style="endArrow=classic;html=1;rounded=0;" edge="1" parent="1">
          <mxGeometry width="50" height="50" relative="1" as="geometry">
            <mxPoint x="720" y="480" as="sourcePoint" />
            <mxPoint x="623" y="480" as="targetPoint" />
          </mxGeometry>
        </mxCell>
      </root>
    </mxGraphModel>
  </diagram>
</mxfile>
